<svg xmlns="http://www.w3.org/2000/svg" viewBox="0 0 225 225" fill="white">
  <path d="M 146 88 L 146 90 L 145 91 L 145 92 L 144 93 L 144 94 L 143 95 L 143 96 L 142 97 L 142 98 L 141 99 L 141 101 L 140 102 L 140 103 L 139 104 L 139 105 L 138 106 L 138 107 L 137 108 L 137 109 L 136 110 L 136 112 L 135 113 L 135 114 L 134 115 L 134 116 L 133 117 L 133 118 L 132 119 L 132 120 L 131 121 L 131 122 L 130 123 L 130 125 L 129 126 L 129 127 L 128 128 L 128 129 L 127 130 L 127 131 L 126 132 L 126 133 L 125 134 L 125 136 L 124 137 L 124 138 L 123 139 L 123 140 L 122 141 L 122 142 L 121 143 L 121 144 L 120 145 L 120 146 L 119 147 L 119 149 L 118 150 L 118 151 L 117 152 L 117 153 L 116 154 L 116 155 L 115 156 L 115 157 L 114 158 L 114 160 L 113 161 L 113 162 L 112 163 L 112 164 L 111 165 L 111 166 L 110 167 L 110 168 L 109 169 L 109 170 L 108 171 L 108 173 L 107 174 L 107 175 L 106 176 L 106 177 L 105 178 L 105 179 L 104 180 L 104 181 L 103 182 L 103 184 L 102 185 L 102 186 L 101 187 L 101 188 L 100 189 L 100 190 L 99 191 L 99 192 L 98 193 L 98 195 L 97 196 L 97 197 L 96 198 L 96 199 L 95 200 L 95 201 L 94 202 L 94 203 L 93 204 L 93 206 L 107 206 L 107 205 L 108 204 L 108 203 L 109 202 L 109 201 L 110 200 L 110 198 L 111 197 L 111 196 L 112 195 L 112 194 L 113 193 L 113 192 L 114 191 L 114 190 L 115 189 L 115 187 L 116 186 L 116 185 L 117 184 L 117 183 L 118 182 L 118 181 L 119 180 L 119 179 L 120 178 L 120 176 L 121 175 L 121 174 L 122 173 L 122 172 L 123 171 L 185 171 L 187 173 L 187 175 L 188 176 L 188 177 L 189 178 L 189 179 L 190 180 L 190 181 L 191 182 L 191 183 L 192 184 L 192 186 L 193 187 L 193 188 L 194 189 L 194 190 L 195 191 L 195 192 L 196 193 L 196 194 L 197 195 L 197 197 L 198 198 L 198 199 L 199 200 L 199 201 L 200 202 L 200 203 L 201 204 L 201 205 L 202 206 L 216 206 L 215 205 L 215 204 L 214 203 L 214 201 L 213 200 L 213 199 L 212 198 L 212 197 L 211 196 L 211 195 L 210 194 L 210 193 L 209 192 L 209 191 L 208 190 L 208 188 L 207 187 L 207 186 L 206 185 L 206 184 L 205 183 L 205 182 L 204 181 L 204 180 L 203 179 L 203 177 L 202 176 L 202 175 L 201 174 L 201 173 L 200 172 L 200 171 L 199 170 L 199 169 L 198 168 L 198 166 L 197 165 L 197 164 L 196 163 L 196 162 L 195 161 L 195 160 L 194 159 L 194 158 L 193 157 L 193 155 L 192 154 L 192 153 L 191 152 L 191 151 L 190 150 L 190 149 L 189 148 L 189 147 L 188 146 L 188 145 L 187 144 L 187 142 L 186 141 L 186 140 L 185 139 L 185 138 L 184 137 L 184 136 L 183 135 L 183 134 L 182 133 L 182 131 L 181 130 L 181 129 L 180 128 L 180 127 L 179 126 L 179 125 L 178 124 L 178 123 L 177 122 L 177 121 L 176 120 L 176 118 L 175 117 L 175 116 L 174 115 L 174 114 L 173 113 L 173 112 L 172 111 L 172 109 L 171 108 L 171 107 L 170 106 L 170 105 L 169 104 L 169 103 L 168 102 L 168 101 L 167 100 L 167 99 L 166 98 L 166 96 L 165 95 L 165 94 L 164 93 L 164 92 L 163 91 L 163 90 L 162 89 L 162 88 Z M 74 7 L 74 31 L 73 32 L 7 32 L 7 45 L 33 45 L 34 46 L 34 48 L 35 49 L 35 52 L 36 53 L 36 55 L 37 56 L 37 58 L 38 59 L 38 60 L 39 61 L 39 63 L 40 64 L 40 66 L 41 67 L 41 68 L 42 69 L 42 71 L 43 72 L 43 73 L 44 74 L 44 76 L 45 77 L 45 78 L 46 79 L 46 80 L 47 81 L 47 82 L 48 83 L 48 84 L 49 85 L 49 86 L 50 87 L 50 88 L 51 89 L 51 90 L 52 91 L 52 92 L 53 93 L 53 94 L 54 95 L 54 96 L 56 98 L 56 99 L 57 100 L 57 101 L 59 103 L 59 104 L 60 105 L 60 106 L 62 108 L 62 109 L 64 111 L 64 112 L 67 109 L 67 108 L 70 105 L 70 104 L 72 102 L 72 100 L 71 99 L 71 98 L 70 97 L 70 96 L 68 94 L 68 93 L 67 92 L 67 91 L 66 90 L 66 89 L 64 87 L 64 86 L 63 85 L 63 84 L 62 83 L 62 82 L 61 81 L 61 80 L 60 79 L 60 78 L 59 77 L 59 76 L 58 75 L 58 74 L 57 73 L 57 72 L 56 71 L 56 69 L 55 68 L 55 67 L 54 66 L 54 64 L 53 63 L 53 62 L 52 61 L 52 59 L 51 58 L 51 57 L 50 56 L 50 54 L 49 53 L 49 51 L 48 50 L 48 48 L 47 47 L 47 46 L 48 45 L 113 45 L 114 46 L 113 47 L 113 49 L 112 50 L 112 52 L 111 53 L 111 55 L 110 56 L 110 58 L 109 59 L 109 60 L 108 61 L 108 63 L 107 64 L 107 65 L 106 66 L 106 67 L 105 68 L 105 70 L 104 71 L 104 72 L 103 73 L 103 74 L 102 75 L 102 76 L 101 77 L 101 78 L 100 79 L 100 80 L 99 81 L 99 82 L 98 83 L 98 84 L 97 85 L 97 86 L 96 87 L 96 88 L 95 89 L 95 90 L 93 92 L 93 93 L 92 94 L 92 95 L 90 97 L 90 98 L 89 99 L 89 100 L 87 102 L 87 103 L 85 105 L 85 106 L 83 108 L 83 109 L 80 112 L 80 113 L 78 115 L 78 116 L 75 119 L 75 120 L 71 124 L 71 125 L 65 131 L 65 132 L 43 154 L 42 154 L 37 159 L 36 159 L 32 163 L 31 163 L 27 167 L 26 167 L 24 169 L 23 169 L 21 171 L 20 171 L 18 173 L 18 174 L 20 176 L 20 177 L 21 178 L 21 179 L 22 180 L 22 181 L 24 183 L 24 184 L 25 184 L 27 182 L 28 182 L 30 180 L 31 180 L 33 178 L 34 178 L 37 175 L 38 175 L 41 172 L 42 172 L 47 167 L 48 167 L 55 160 L 56 160 L 71 145 L 71 144 L 78 137 L 78 136 L 80 134 L 87 141 L 87 142 L 100 155 L 101 155 L 101 154 L 102 153 L 102 152 L 103 151 L 103 150 L 104 149 L 104 147 L 105 146 L 105 145 L 106 144 L 106 142 L 94 130 L 94 129 L 89 124 L 89 122 L 92 119 L 92 118 L 94 116 L 94 115 L 96 113 L 96 112 L 98 110 L 98 109 L 100 107 L 100 106 L 102 104 L 102 103 L 103 102 L 103 101 L 104 100 L 104 99 L 106 97 L 106 96 L 107 95 L 107 94 L 108 93 L 108 92 L 109 91 L 109 90 L 110 89 L 110 88 L 111 87 L 111 86 L 112 85 L 112 84 L 113 83 L 113 82 L 114 81 L 114 80 L 115 79 L 115 78 L 116 77 L 116 76 L 117 75 L 117 73 L 118 72 L 118 71 L 119 70 L 119 69 L 120 68 L 120 66 L 121 65 L 121 63 L 122 62 L 122 61 L 123 60 L 123 58 L 124 57 L 124 55 L 125 54 L 125 52 L 126 51 L 126 48 L 127 47 L 127 46 L 128 45 L 150 45 L 150 32 L 88 32 L 87 31 L 87 7 Z " />
</svg>